<svg width="26" height="26" viewBox="0 0 26 26" fill="none" xmlns="http://www.w3.org/2000/svg">
<path d="M20.5834 23.8334H5.41669C3.62177 23.8334 2.16669 22.3783 2.16669 20.5834V3.25002C2.16669 2.65172 2.65172 2.16669 3.25002 2.16669H18.4167C19.015 2.16669 19.5 2.65172 19.5 3.25002V16.25H23.8334V20.5834C23.8334 22.3783 22.3783 23.8334 20.5834 23.8334ZM19.5 18.4167V20.5834C19.5 21.1817 19.985 21.6667 20.5834 21.6667C21.1817 21.6667 21.6667 21.1817 21.6667 20.5834V18.4167H19.5ZM17.3334 21.6667V4.33335H4.33335V20.5834C4.33335 21.1817 4.81838 21.6667 5.41669 21.6667H17.3334ZM6.50002 7.58335H15.1667V9.75002H6.50002V7.58335ZM6.50002 11.9167H15.1667V14.0834H6.50002V11.9167ZM6.50002 16.25H11.9167V18.4167H6.50002V16.25Z" fill="#FFA62B"/>
</svg>
