<svg width="28" height="28" viewBox="0 0 28 28" fill="none" xmlns="http://www.w3.org/2000/svg">
<path d="M3.5 14H14V15.75H3.5V14ZM1.75 9.625H10.5V11.375H1.75V9.625Z" fill="#FFA62B"/>
<path d="M26.1791 14.5303L23.5541 8.40525C23.4867 8.24789 23.3745 8.11377 23.2316 8.01952C23.0886 7.92527 22.9212 7.87502 22.75 7.875H20.125V6.125C20.125 5.89294 20.0328 5.67038 19.8687 5.50628C19.7046 5.34219 19.4821 5.25 19.25 5.25H5.24999V7H18.375V17.9865C17.9765 18.2183 17.6278 18.5266 17.3488 18.8936C17.0698 19.2606 16.866 19.679 16.7492 20.125H11.2507C11.0378 19.3002 10.5313 18.5813 9.82623 18.1032C9.12117 17.6251 8.26595 17.4206 7.42086 17.5279C6.57578 17.6352 5.79885 18.0471 5.23571 18.6863C4.67257 19.3255 4.36188 20.1481 4.36188 21C4.36188 21.8519 4.67257 22.6745 5.23571 23.3137C5.79885 23.9529 6.57578 24.3648 7.42086 24.4721C8.26595 24.5794 9.12117 24.3749 9.82623 23.8968C10.5313 23.4187 11.0378 22.6998 11.2507 21.875H16.7492C16.9396 22.626 17.3749 23.292 17.9863 23.7678C18.5977 24.2435 19.3503 24.5019 20.125 24.5019C20.8997 24.5019 21.6523 24.2435 22.2637 23.7678C22.8751 23.292 23.3104 22.626 23.5007 21.875H25.375C25.6071 21.875 25.8296 21.7828 25.9937 21.6187C26.1578 21.4546 26.25 21.2321 26.25 21V14.875C26.25 14.7565 26.2258 14.6392 26.1791 14.5303ZM7.87499 22.75C7.52887 22.75 7.19053 22.6474 6.90274 22.4551C6.61495 22.2628 6.39065 21.9895 6.2582 21.6697C6.12575 21.3499 6.09109 20.9981 6.15861 20.6586C6.22614 20.3191 6.39281 20.0073 6.63755 19.7626C6.88229 19.5178 7.19411 19.3511 7.53358 19.2836C7.87305 19.2161 8.22491 19.2508 8.54468 19.3832C8.86445 19.5157 9.13777 19.74 9.33006 20.0278C9.52235 20.3155 9.62499 20.6539 9.62499 21C9.62499 21.4641 9.44061 21.9092 9.11242 22.2374C8.78424 22.5656 8.33912 22.75 7.87499 22.75ZM20.125 9.625H22.1725L24.0485 14H20.125V9.625ZM20.125 22.75C19.7789 22.75 19.4405 22.6474 19.1527 22.4551C18.865 22.2628 18.6407 21.9895 18.5082 21.6697C18.3757 21.3499 18.3411 20.9981 18.4086 20.6586C18.4761 20.3191 18.6428 20.0073 18.8876 19.7626C19.1323 19.5178 19.4441 19.3511 19.7836 19.2836C20.123 19.2161 20.4749 19.2508 20.7947 19.3832C21.1145 19.5157 21.3878 19.74 21.5801 20.0278C21.7724 20.3155 21.875 20.6539 21.875 21C21.875 21.4641 21.6906 21.9092 21.3624 22.2374C21.0342 22.5656 20.5891 22.75 20.125 22.75ZM24.5 20.125H23.5007C23.308 19.3755 22.872 18.7112 22.2611 18.2361C21.6502 17.761 20.8989 17.5022 20.125 17.5V15.75H24.5V20.125Z" fill="#FFA62B"/>
</svg>
