<svg width="37" height="40" viewBox="0 0 37 40" fill="none" xmlns="http://www.w3.org/2000/svg">
<ellipse cx="28.5" cy="29.5" rx="4.5" ry="5.5" fill="#FFA62B"/>
<path d="M33.127 18.416C33.0518 18.3441 32.9623 18.2887 32.8643 18.2536C32.7663 18.2184 32.662 18.2042 32.5582 18.2118C31.3946 14.7671 28.9581 11.8975 25.7476 10.1908C25.7851 10.0418 25.8143 9.89088 25.8351 9.73867C25.8351 9.73867 25.8351 9.65117 25.8351 9.60742C25.8351 9.56367 25.9372 9.1699 25.9664 8.92198C25.9809 8.64508 25.9809 8.36761 25.9664 8.09071V7.98862C25.9664 7.79903 25.9664 7.60944 25.9664 7.40527C25.9592 7.31791 25.9592 7.23012 25.9664 7.14276C25.9112 6.64916 25.8136 6.16123 25.6747 5.68438V5.71355C25.1248 3.87407 23.9323 2.2934 22.3145 1.25967C20.6966 0.225942 18.7612 -0.192021 16.8609 0.0819691C14.9607 0.355959 13.2222 1.30366 11.9622 2.75232C10.7023 4.20098 10.0049 6.05415 9.99713 7.97404C9.99572 7.99832 9.99572 8.02267 9.99713 8.04696C10 8.77125 10.0981 9.49202 10.2888 10.1908C7.12725 11.9134 4.72783 14.7604 3.56569 18.1681C3.46901 18.1656 3.3728 18.1824 3.28267 18.2174C3.19253 18.2525 3.11027 18.3051 3.04067 18.3723C1.24079 20.3334 0.173519 22.856 0.0193883 25.5134C-0.134742 28.1709 0.633727 30.8 2.19481 32.956L2.79275 33.7727V39.2562C2.79275 39.4535 2.87111 39.6427 3.01059 39.7822C3.15008 39.9216 3.33926 40 3.53652 40H32.602C32.7967 39.9962 32.9822 39.9161 33.1185 39.7771C33.2548 39.638 33.3312 39.451 33.3312 39.2562V33.8602L33.9729 32.9706C35.5264 30.8171 36.2905 28.194 36.1364 25.543C35.9823 22.892 34.9196 20.3751 33.127 18.416ZM24.0559 5.52396C23.6774 5.20779 23.2724 4.92479 22.8454 4.6781L22.6558 4.56143C22.2409 4.33557 21.8123 4.13586 21.3725 3.9635L21.1245 3.876C20.6714 3.72375 20.2085 3.60194 19.7391 3.5114H19.5349C18.5314 3.33628 17.5051 3.33628 16.5015 3.5114H16.2973C15.8016 3.59087 15.3137 3.71285 14.8389 3.876L14.6056 3.9635C14.1608 4.12409 13.7313 4.3242 13.3222 4.56143L13.1181 4.6781C12.7356 4.90403 12.37 5.15748 12.0243 5.43646C12.5388 4.27484 13.3816 3.2889 14.449 2.59984C15.5164 1.91078 16.7619 1.54864 18.0323 1.55794C19.3028 1.56723 20.5428 1.94756 21.6 2.65217C22.6572 3.35677 23.4855 4.35494 23.983 5.52396H24.0559ZM20.7308 14.0409L20.4974 14.143C20.1636 14.2695 19.8228 14.3767 19.4766 14.4638C19.0447 14.5522 18.6049 14.5962 18.164 14.5951C16.4413 14.5913 14.7898 13.9072 13.5689 12.6918C12.3481 11.4764 11.6566 9.82797 11.6451 8.10529C11.8521 7.77527 12.0863 7.46307 12.3451 7.17193C13.1579 6.34061 14.1434 5.69808 15.232 5.28981C16.3206 4.88155 17.4856 4.71753 18.6446 4.80936C19.8036 4.90118 20.9282 5.24662 21.9389 5.82121C22.9496 6.39581 23.8217 7.18552 24.4934 8.13446C24.5001 8.16816 24.5001 8.20284 24.4934 8.23654C24.4987 8.6286 24.4595 9.02 24.3767 9.40324C24.2977 9.79773 24.1805 10.1836 24.0267 10.5554V10.6283C23.8897 10.9462 23.7288 11.2534 23.5455 11.5471L23.3267 11.8533C23.1417 12.1205 22.9317 12.3696 22.6996 12.5971C22.645 12.659 22.5865 12.7175 22.5246 12.7721C22.0004 13.2907 21.3944 13.7194 20.7308 14.0409ZM4.25112 22.7911C4.24741 20.5046 4.85189 18.2583 6.00256 16.2824C7.15324 14.3065 8.80871 12.6722 10.7992 11.5471V11.62C10.878 11.7803 10.9656 11.9361 11.0617 12.0867C11.2534 12.4251 11.4729 12.7471 11.718 13.0492C11.822 13.1869 11.934 13.3184 12.0534 13.443C12.3151 13.7405 12.6031 14.0138 12.9139 14.2596C13.0711 14.3962 13.2367 14.5228 13.4097 14.6388L13.6285 14.7847C13.8181 14.9013 13.9931 15.018 14.1681 15.1055C14.913 15.5119 15.7219 15.7881 16.5598 15.9222C16.7912 15.9684 17.0249 16.0025 17.2598 16.0243H18.0911C18.3534 16.04 18.6164 16.04 18.8786 16.0243C19.0799 16.0025 19.2795 15.9684 19.4766 15.9222C20.2799 15.7873 21.0543 15.516 21.7662 15.1201C21.9779 15.0116 22.1825 14.8899 22.3788 14.7555L22.5246 14.668C22.719 14.5349 22.9042 14.3887 23.0788 14.2305C23.3954 13.9808 23.6883 13.7026 23.9538 13.3992C24.0588 13.2892 24.1563 13.1723 24.2455 13.0492C24.4871 12.7496 24.7064 12.4328 24.9017 12.1012C24.9854 11.9711 25.0585 11.8346 25.1205 11.6929L25.3101 11.5471C27.3106 12.6521 28.9794 14.2718 30.1435 16.2385C31.3076 18.2052 31.9248 20.4474 31.9311 22.7328V24.6725H28.8102V18.8389C28.8102 18.6456 28.7334 18.4601 28.5966 18.3233C28.4599 18.1866 28.2744 18.1098 28.081 18.1098H7.9554C7.76201 18.1098 7.57654 18.1866 7.43979 18.3233C7.30304 18.4601 7.22621 18.6456 7.22621 18.8389V24.6725H4.30946L4.25112 22.7911ZM27.3518 19.5681V21.0265H20.2058V19.5681H27.3518ZM17.289 21.0265V19.5681H18.7474V21.0265H17.289ZM18.7474 22.4849V27.283L18.5286 27.0788C18.4632 27.009 18.3841 26.9534 18.2963 26.9154C18.2085 26.8774 18.1139 26.8578 18.0182 26.8578C17.9225 26.8578 17.8279 26.8774 17.7401 26.9154C17.6523 26.9534 17.5732 27.009 17.5078 27.0788L17.289 27.283V22.4849H18.7474ZM15.8306 19.5681V21.0265H8.68459V19.5681H15.8306ZM7.22621 38.527H4.30946V34.1519H7.22621V38.527ZM3.81361 32.6935L3.43443 32.1102C2.30221 30.5389 1.6453 28.6754 1.54188 26.7415C1.43846 24.8075 1.89289 22.8846 2.85108 21.2015L2.70524 25.3871C2.70624 25.5813 2.77895 25.7682 2.90942 25.9121C3.04853 26.0517 3.23736 26.1304 3.43443 26.1308H7.9554C8.72897 26.1308 9.47086 26.4381 10.0179 26.9851C10.5649 27.5321 10.8722 28.274 10.8722 29.0476V29.8059C10.8722 30.5795 10.5649 31.3214 10.0179 31.8684C9.47086 32.4154 8.72897 32.7227 7.9554 32.7227L3.81361 32.6935ZM20.2058 38.527H18.7474V34.1519H20.2058V38.527ZM23.1225 33.4227V38.527H21.6641V33.4227C21.6641 33.2293 21.5873 33.0439 21.4506 32.9071C21.3138 32.7704 21.1284 32.6935 20.935 32.6935H18.0182C17.8248 32.6935 17.6393 32.7704 17.5026 32.9071C17.3658 33.0439 17.289 33.2293 17.289 33.4227V38.527H8.68459V34.1519H8.75751L9.06377 34.079L9.54503 33.9332L9.85129 33.7873L10.2596 33.5686L10.5367 33.3644C10.6645 33.2753 10.7863 33.1778 10.9013 33.0727C10.9742 32.9998 11.0617 32.9269 11.1347 32.8394L11.4409 32.4748L11.6305 32.2123C11.7169 32.0712 11.7948 31.9251 11.8639 31.7748L11.9951 31.4977C12.0619 31.327 12.1155 31.1515 12.1555 30.9726C12.162 30.8853 12.162 30.7975 12.1555 30.7101C12.215 30.4371 12.2443 30.1583 12.243 29.8789V29.0476C12.2443 28.7681 12.215 28.4894 12.1555 28.2163C12.162 28.1289 12.162 28.0412 12.1555 27.9538C12.1155 27.775 12.0619 27.5995 11.9951 27.4288L11.8639 27.1517C11.7948 27.0013 11.7169 26.8552 11.6305 26.7142L11.4409 26.4517L11.1347 26.1308C11.1347 26.0433 10.9742 25.9704 10.9013 25.8975C10.7863 25.7924 10.6645 25.6949 10.5367 25.6058L10.2596 25.4016L9.85129 25.1829L9.54503 25.0371L9.06377 24.8912L8.75751 24.8183L8.68459 24.6725V22.4849H15.8306V29.0476C15.8314 29.1915 15.8747 29.3321 15.9551 29.4515C16.0356 29.5708 16.1496 29.6637 16.2827 29.7184C16.4142 29.778 16.5611 29.7946 16.7025 29.7658C16.8439 29.737 16.9726 29.6643 17.0703 29.558L18.0182 28.6247L18.9661 29.558C19.0313 29.6281 19.1103 29.6837 19.1982 29.7214C19.2861 29.7591 19.3809 29.7779 19.4766 29.7768C19.5678 29.7974 19.6625 29.7974 19.7537 29.7768C19.8964 29.7186 20.0171 29.6167 20.0983 29.4857C20.1795 29.3547 20.2172 29.2013 20.2058 29.0476V22.4849H27.3518V24.76L27.0601 24.8475L26.5935 25.0079L26.3018 25.1537L25.8934 25.3871L25.6309 25.5767L25.2809 25.8683C25.208 25.9558 25.1205 26.0287 25.0476 26.1017L24.7559 26.4663L24.5809 26.7288C24.4934 26.8746 24.4205 27.0204 24.3476 27.1663L24.2163 27.4434C24.2163 27.6038 24.1142 27.7788 24.0559 27.9538C23.9975 28.1288 24.0559 28.1142 24.0559 28.2017C23.9556 28.4749 23.8871 28.7587 23.8517 29.0476V29.8059C23.8512 30.0805 23.8806 30.3544 23.9392 30.6226C23.9392 30.7101 23.9392 30.7831 23.9392 30.8706C23.9392 30.9581 24.0413 31.2206 24.0996 31.3956L24.2309 31.6581C24.3038 31.8039 24.3767 31.9498 24.4642 32.0956L24.6392 32.3435C24.7283 32.4713 24.8258 32.5931 24.9309 32.7081H23.8517C23.6608 32.7081 23.4775 32.7829 23.3412 32.9165C23.2048 33.0501 23.1263 33.2319 23.1225 33.4227ZM26.0393 38.527H24.5809V34.1519H26.0393V38.527ZM31.8728 38.527H28.8102V34.1519H31.8728V38.527ZM32.7916 32.1102L32.354 32.6935H28.1102C27.3544 32.6671 26.6385 32.3481 26.1134 31.804C25.5883 31.2598 25.295 30.533 25.2955 29.7768V29.0476C25.295 28.2914 25.5883 27.5646 26.1134 27.0204C26.6385 26.4762 27.3544 26.1573 28.1102 26.1308H32.7332C32.9303 26.1304 33.1191 26.0517 33.2582 25.9121C33.3887 25.7682 33.4614 25.5813 33.4624 25.3871L33.3749 21.2015C34.3331 22.8846 34.7875 24.8075 34.6841 26.7415C34.5807 28.6754 33.9238 30.5389 32.7916 32.1102Z" fill="#00401A"/>
</svg>
