<svg width="40" height="40" viewBox="0 0 40 40" fill="none" xmlns="http://www.w3.org/2000/svg">
<circle cx="19.5" cy="15.5" r="4.5" fill="#FFA62B"/>
<path d="M39.956 39.1515L34.2979 26.2184C34.2493 26.1121 34.1712 26.022 34.0728 25.9589C33.9743 25.8958 33.8598 25.8624 33.7429 25.8627H26.8379C29.6607 21.9104 32.352 16.9424 32.352 12.3444C32.352 9.07043 31.0514 5.9306 28.7364 3.61558C26.4214 1.30056 23.2815 0 20.0076 0C16.7337 0 13.5938 1.30056 11.2788 3.61558C8.96379 5.9306 7.66323 9.07043 7.66323 12.3444C7.66323 16.9459 10.3491 21.9139 13.1773 25.8627H6.26159C6.14469 25.8624 6.03017 25.8958 5.93175 25.9589C5.83333 26.022 5.75517 26.1121 5.70663 26.2184L0.0485 39.1515C0.00934086 39.2438 -0.00648888 39.3443 0.00240997 39.4441C0.0113088 39.5439 0.0446622 39.64 0.0995221 39.7239C0.154382 39.8078 0.229059 39.8768 0.316952 39.925C0.404845 39.9731 0.503248 39.9989 0.603463 40H39.401C39.5013 39.9989 39.5997 39.9731 39.6876 39.925C39.7754 39.8768 39.8501 39.8078 39.905 39.7239C39.9598 39.64 39.9932 39.5439 40.0021 39.4441C40.011 39.3443 39.9952 39.2438 39.956 39.1515ZM33.3445 27.0687L35.6426 32.3212H21.4573C23.0518 30.6566 24.5507 28.9029 25.9468 27.0687H33.3445ZM8.87098 12.3337C9.39393 -2.40128 30.6141 -2.39594 31.1335 12.3337C31.1335 20.3255 22.078 29.9662 20.0023 32.0776C17.9265 29.968 8.87098 20.3291 8.87098 12.3337ZM6.66003 27.0687H11.1833L9.62339 32.5169H4.26586L6.66003 27.0687ZM1.53196 38.7887L3.74469 33.73H10.0805C10.2131 33.7309 10.3424 33.6885 10.4487 33.6092C10.555 33.5299 10.6324 33.418 10.6693 33.2906L12.448 27.0651H14.0613C15.5808 29.0628 17.2234 30.9638 18.9795 32.757L6.93395 38.7887H1.53196ZM9.63762 38.7887L20.1463 33.5326H29.1965L30.5377 38.7887H9.63762ZM31.7881 38.7887L30.4469 33.5326H36.1744L38.4743 38.7887H31.7881ZM27.5192 17.1487C27.6281 17.1019 27.721 17.0243 27.7864 16.9253C27.8518 16.8264 27.8869 16.7105 27.8874 16.592V8.2942C27.8869 8.17561 27.8518 8.05974 27.7864 7.96082C27.721 7.86191 27.6281 7.78427 27.5192 7.73746L20.2406 4.61402C20.165 4.58147 20.0836 4.56468 20.0014 4.56468C19.9191 4.56468 19.8377 4.58147 19.7621 4.61402L12.4889 7.73746C12.3802 7.78435 12.2875 7.86206 12.2224 7.96099C12.1573 8.05993 12.1225 8.17576 12.1225 8.2942V16.592C12.1225 16.7104 12.1573 16.8262 12.2224 16.9252C12.2875 17.0241 12.3802 17.1018 12.4889 17.1487L19.7621 20.2757C19.8379 20.3074 19.9192 20.3237 20.0014 20.3237C20.0835 20.3237 20.1648 20.3074 20.2406 20.2757L27.5192 17.1487ZM26.6778 16.1935L20.6159 18.7976V11.8196L26.6778 9.21558V16.1935ZM19.4028 18.7976L13.3374 16.1935V9.21558L19.3993 11.8196L19.4028 18.7976ZM20.0094 10.7595L14.2641 8.2942L20.0005 5.82889L25.7404 8.2942L20.0094 10.7595Z" fill="#00401A"/>
</svg>
