<svg width="40" height="40" viewBox="0 0 40 40" fill="none" xmlns="http://www.w3.org/2000/svg">
<ellipse cx="34.5" cy="35" rx="5.5" ry="5" fill="#FFA62B"/>
<path fill-rule="evenodd" clip-rule="evenodd" d="M39.8099 20.9618L37.0794 15.8421C36.9634 15.6234 36.7257 15.4849 36.4653 15.4842H35.78V7.23809C35.7807 7.03644 35.6662 6.80637 35.5287 6.58301L31.5539 0.330529C31.4302 0.135932 31.2068 0.01635 30.9653 0.0154972L8.25763 0C8.01635 0.000562083 7.79301 0.119773 7.66906 0.31373L3.5397 6.74768C3.46554 6.87115 3.44283 6.98594 3.44283 7.13334V25.16C3.21156 25.1605 2.99598 25.2697 2.86905 25.4511L0.117034 29.3183C0.0542883 29.421 4.56268e-06 29.5541 4.56268e-06 29.6749V39.3523C-0.00137139 39.7106 0.308636 40.0014 0.690691 40C13.5335 40 26.3745 40 39.2176 40C39.5996 40.0014 39.9097 39.7106 39.9083 39.3523V21.2878C39.9083 21.1432 39.8501 21.0272 39.8099 20.9618ZM8.64867 1.29189L17.1372 1.29964L16.945 3.22756H7.40704L8.64867 1.29189ZM22.0916 1.30159L30.5694 1.30934L31.7922 3.22845H22.2972L22.0916 1.30159ZM18.5172 1.30739H20.7062L21.2598 6.4372H18.0039L18.5172 1.30739ZM6.57795 4.51809H16.816L16.6252 6.4372H5.34572L6.57795 4.51809ZM22.4356 4.51809H32.6146L33.8374 6.4372H22.6399L22.4356 4.51809ZM4.82031 7.73252H16.5164V10.971C16.5165 11.4646 17.083 11.7753 17.5417 11.533L19.6097 10.4228L21.6764 11.533C22.1362 11.7808 22.7092 11.4684 22.7071 10.971V7.73252H34.4031V15.4858C29.5826 15.4872 24.7769 15.4858 19.9551 15.4858C19.6942 15.486 19.4558 15.6246 19.3396 15.8437L16.5876 21.0062C16.5236 21.1283 16.5024 21.2664 16.5271 21.4006V25.1632H4.82035L4.82031 7.73252ZM17.8924 7.73252H21.331V9.85706L19.9497 9.11864C19.7387 9.00603 19.4794 9.00603 19.2684 9.11864L17.8924 9.85706V7.73252ZM6.88163 9.03796C6.50375 9.03926 6.19779 9.32625 6.19632 9.68062C6.19769 10.035 6.50375 10.3219 6.88163 10.3233H11.6963C12.0763 10.3247 12.3855 10.0369 12.387 9.68062C12.3856 9.32432 12.0763 9.03658 11.6963 9.03796H6.88163ZM26.8364 9.03796C26.4565 9.03668 26.1472 9.32432 26.1457 9.68062V12.2613C26.1464 12.6181 26.4559 12.9065 26.8364 12.9052C28.6697 12.9052 30.5031 12.9052 32.3364 12.9052C32.7165 12.9065 33.0258 12.6177 33.0271 12.2613V9.68062C33.0257 9.3242 32.7165 9.0366 32.3364 9.03796C30.5031 9.03796 28.6697 9.03796 26.8364 9.03796ZM27.5217 10.3233H28.8977V11.6136H27.5217V10.3233ZM30.2751 10.3233H31.6511V11.6136H30.2751V10.3233ZM6.88163 11.6136C6.50165 11.615 6.19483 11.905 6.19632 12.2613C6.197 12.6161 6.50323 12.9038 6.88163 12.9052H10.3203C10.7008 12.9066 11.0102 12.6181 11.011 12.2613C11.0124 11.903 10.7024 11.6122 10.3203 11.6136H6.88163ZM20.381 16.7761H26.0544L25.5397 20.6483H18.3143L19.0023 19.358H24.0831C24.4612 19.3568 24.7684 19.07 24.7697 18.7154C24.7711 18.359 24.4632 18.0689 24.0831 18.0677H19.6917L20.381 16.7761ZM27.4411 16.7761H28.9797L29.4971 20.6483H26.9278L27.4411 16.7761ZM30.3651 16.7761H36.0385L36.7278 18.0677H32.3364C31.9563 18.0689 31.6496 18.359 31.6511 18.7154C31.6525 19.07 31.9583 19.3568 32.3364 19.358H37.4171L38.1065 20.6483H30.8798L30.3651 16.7761ZM17.9031 21.9387H25.4604V25.6635C25.4645 26.1599 26.0397 26.4665 26.4964 26.2154L28.2124 25.2678L29.9244 26.2154C30.3811 26.4665 30.9565 26.1599 30.9604 25.6635V21.9387H38.5325V38.7128H30.9604V36.7786C30.9618 36.4223 30.6551 36.1324 30.2751 36.131H26.1605C25.7785 36.1296 25.4684 36.4204 25.4698 36.7786V38.7128H17.9031V21.9387ZM26.8364 21.9387H29.5884V24.5344L28.5578 23.9636C28.3429 23.8454 28.0766 23.8454 27.8617 23.9636L26.8364 24.5294V21.9387ZM19.955 23.2303C19.5766 23.231 19.2699 23.518 19.2684 23.8729V26.4535C19.267 26.8103 19.5746 27.1005 19.955 27.1012H22.7071C23.087 27.0998 23.3938 26.8098 23.3924 26.4535V23.8729C23.391 23.5185 23.0849 23.2317 22.7071 23.2303H19.955ZM20.6404 24.5206H22.0164V25.8109H20.6404V24.5206ZM3.80981 26.4535H7.99292L7.07513 29.0354H1.97557L3.80981 26.4535ZM9.44148 26.4535H10.7463L9.82714 29.0354H8.5237L9.44148 26.4535ZM12.1962 26.4535H16.5164V29.0354H11.2784L12.1962 26.4535ZM1.37626 30.3258H6.88163V32.9076C6.88232 33.3867 7.42039 33.6977 7.87736 33.4835L8.94833 32.9832L10.0153 33.4835C10.4722 33.6976 11.01 33.3866 11.011 32.9076V30.3258H16.5164V38.7128H1.37626V30.3258ZM8.25764 30.3258H9.63499V31.8643L9.25336 31.6829C9.06002 31.5924 8.83261 31.5924 8.63927 31.6829L8.25764 31.8643V30.3258ZM19.955 34.1979C19.5766 34.1987 19.2699 34.4858 19.2684 34.8406V36.7786C19.2691 37.134 19.5761 37.4218 19.955 37.4225C20.3334 37.4211 20.6396 37.1335 20.6404 36.7786V34.8406C20.639 34.4863 20.3329 34.1993 19.955 34.1979ZM3.44296 34.8406C3.06088 34.8392 2.75078 35.13 2.75227 35.4883V36.7786C2.75296 37.1354 3.06246 37.4239 3.44296 37.4225C3.82188 37.4218 4.12888 37.134 4.12962 36.7786V35.4883C4.13099 35.1315 3.82346 34.8413 3.44296 34.8406ZM6.19632 35.4883C5.81634 35.4869 5.5071 35.7746 5.50562 36.131V36.7786C5.50631 37.1354 5.81582 37.4239 6.19632 37.4225C6.57472 37.4211 6.88089 37.1335 6.88163 36.7786V36.131C6.88025 35.7766 6.5742 35.4897 6.19632 35.4883ZM22.7071 35.4883C22.3271 35.4869 22.0178 35.7746 22.0164 36.131V36.7786C22.0171 37.1354 22.3266 37.4239 22.7071 37.4225C23.0855 37.4211 23.3916 37.1335 23.3924 36.7786V36.131C23.391 35.7766 23.0849 35.4897 22.7071 35.4883ZM26.8472 37.4225H29.5884V38.7128H26.8472V37.4225Z" fill="#00401A"/>
</svg>
