<svg width="48" height="40" viewBox="0 0 48 40" fill="none" xmlns="http://www.w3.org/2000/svg">
<ellipse cx="11.5" cy="14" rx="5.5" ry="5" fill="#FFA62B"/>
<path d="M28.5983 35.616C28.4247 35.6156 28.257 35.5533 28.1254 35.4401C27.9938 35.327 27.907 35.1705 27.8806 34.999C27.8543 34.8274 27.8901 34.6521 27.9817 34.5047C28.0733 34.3573 28.2146 34.2474 28.38 34.195L32.5168 32.9002C32.6985 32.8497 32.8928 32.8718 33.0586 32.9619C33.2244 33.0519 33.3487 33.2028 33.4053 33.3827C33.4619 33.5627 33.4464 33.7576 33.3621 33.9263C33.2778 34.0951 33.1311 34.2245 32.9532 34.2872L28.8165 35.582C28.7461 35.6051 28.6724 35.6166 28.5983 35.616Z" fill="#00401A"/>
<path d="M19.0881 38.5646C18.9935 38.5672 18.8994 38.5508 18.8112 38.5164C18.723 38.4819 18.6427 38.4302 18.5749 38.3642C18.507 38.2982 18.4532 38.2192 18.4164 38.1321C18.3796 38.0449 18.3606 37.9512 18.3607 37.8565V14.1952C18.36 14.0403 18.4091 13.8893 18.5008 13.7644C18.5925 13.6395 18.7219 13.5474 18.8699 13.5017L37.2403 7.77427C37.3495 7.74046 37.465 7.73249 37.5778 7.75101C37.6906 7.76953 37.7975 7.81401 37.8901 7.88096C37.9818 7.94896 38.0562 8.03743 38.1076 8.13932C38.1589 8.2412 38.1858 8.35367 38.186 8.46777V19.5298C38.186 19.7227 38.1093 19.9077 37.9729 20.0442C37.8365 20.1806 37.6515 20.2572 37.4585 20.2572C37.2656 20.2572 37.0806 20.1806 36.9441 20.0442C36.8077 19.9077 36.7311 19.7227 36.7311 19.5298V9.45709L19.835 14.7432V37.8177C19.8356 37.916 19.8167 38.0134 19.7794 38.1043C19.7421 38.1952 19.6871 38.2778 19.6177 38.3473C19.5482 38.4168 19.4656 38.4717 19.3747 38.509C19.2838 38.5464 19.1864 38.5652 19.0881 38.5646Z" fill="#00401A"/>
<path d="M19.0881 38.584C18.9145 38.5836 18.7468 38.5213 18.6152 38.4081C18.4836 38.295 18.3968 38.1385 18.3705 37.967C18.3441 37.7954 18.38 37.6201 18.4715 37.4727C18.5631 37.3253 18.7044 37.2154 18.8698 37.163L28.3606 34.1951C28.4533 34.1604 28.5521 34.145 28.6509 34.1499C28.7498 34.1547 28.8466 34.1797 28.9355 34.2232C29.0243 34.2668 29.1034 34.328 29.1678 34.4031C29.2321 34.4783 29.2805 34.5658 29.3099 34.6603C29.3393 34.7548 29.3492 34.8543 29.3388 34.9527C29.3284 35.0511 29.2981 35.1464 29.2496 35.2327C29.2011 35.319 29.1356 35.3944 29.0569 35.4545C28.9783 35.5146 28.8882 35.558 28.7922 35.582L19.3257 38.55C19.2491 38.5753 19.1687 38.5868 19.0881 38.584Z" fill="#00401A"/>
<path d="M21.998 34.2194C21.8244 34.219 21.6567 34.1567 21.5251 34.0435C21.3935 33.9304 21.3067 33.7739 21.2804 33.6024C21.254 33.4308 21.2899 33.2555 21.3815 33.1081C21.473 32.9607 21.6143 32.8508 21.7798 32.7984L29.7623 30.3009C29.944 30.2504 30.1383 30.2725 30.3041 30.3625C30.4699 30.4526 30.5942 30.6035 30.6508 30.7834C30.7074 30.9634 30.6919 31.1583 30.6076 31.327C30.5232 31.4958 30.3766 31.6252 30.1987 31.6879L22.2356 34.1854C22.159 34.2107 22.0786 34.2222 21.998 34.2194Z" fill="#00401A"/>
<path d="M21.998 30.8245C21.8244 30.8242 21.6567 30.7618 21.5251 30.6487C21.3935 30.5355 21.3067 30.3791 21.2804 30.2075C21.254 30.036 21.2899 29.8607 21.3815 29.7133C21.473 29.5658 21.6143 29.456 21.7798 29.4036L26.8864 27.8081C27.0704 27.7489 27.2703 27.7652 27.4421 27.8534C27.614 27.9417 27.7438 28.0946 27.803 28.2785C27.8622 28.4624 27.8458 28.6623 27.7576 28.8342C27.6694 29.0061 27.5165 29.1359 27.3326 29.1951L22.2356 30.7906C22.159 30.8158 22.0786 30.8273 21.998 30.8245Z" fill="#00401A"/>
<path d="M19.0882 38.5453C19.0156 38.5458 18.9435 38.5344 18.8748 38.5113L0.514063 32.7693C0.365157 32.7245 0.234706 32.6327 0.142093 32.5078C0.0494794 32.3829 -0.000352431 32.2314 1.87634e-06 32.0758V8.42904C1.87634e-06 8.23611 0.0766431 8.05108 0.213066 7.91465C0.349488 7.77823 0.534516 7.70159 0.727447 7.70159C0.803162 7.70065 0.878521 7.71212 0.95053 7.73554L5.9311 9.28742C6.07869 9.33541 6.20736 9.42874 6.29879 9.55414C6.39022 9.67953 6.43975 9.83058 6.44031 9.98577V19.9857C6.49783 20.0791 6.53377 20.1842 6.54551 20.2933C6.55726 20.4023 6.54452 20.5126 6.50821 20.6162C6.44444 20.7981 6.31107 20.9473 6.13739 21.0309C5.96371 21.1146 5.76393 21.1259 5.58193 21.0623L5.47039 21.0235C5.3285 20.9726 5.20578 20.8792 5.11899 20.7559C5.03219 20.6327 4.98555 20.4856 4.98542 20.3349V10.5192L1.45489 9.41351V31.5424L18.3801 36.8285V14.7045L14.4131 13.4678V22.9246C14.4131 23.1175 14.3365 23.3025 14.2 23.439C14.0636 23.5754 13.8786 23.652 13.6857 23.652C13.4927 23.652 13.3077 23.5754 13.1713 23.439C13.0349 23.3025 12.9582 23.1175 12.9582 22.9246V12.4785C12.9581 12.3638 12.9847 12.2506 13.036 12.148C13.0872 12.0454 13.1617 11.9561 13.2536 11.8874C13.3454 11.8186 13.452 11.7723 13.5649 11.752C13.6778 11.7317 13.7939 11.738 13.9039 11.7704L19.3258 13.4678C19.4697 13.5171 19.5942 13.6108 19.6813 13.7355C19.7685 13.8601 19.8138 14.0092 19.8108 14.1613V37.8178C19.8117 37.9321 19.7854 38.045 19.7339 38.1471C19.6825 38.2491 19.6074 38.3374 19.5149 38.4046C19.3911 38.4954 19.2417 38.5446 19.0882 38.5453Z" fill="#00401A"/>
<path d="M13.6857 23.6665C13.4927 23.6665 13.3077 23.5899 13.1713 23.4535C13.0349 23.3171 12.9582 23.132 12.9582 22.9391V12.5754C12.9439 12.4647 12.9539 12.3522 12.9873 12.2457C13.0139 12.153 13.0588 12.0667 13.1194 11.9918C13.1801 11.9168 13.2552 11.8549 13.3402 11.8097C13.4253 11.7644 13.5187 11.7367 13.6147 11.7283C13.7107 11.7199 13.8074 11.7309 13.899 11.7607C14.0464 11.8098 14.1749 11.9032 14.2669 12.0283C14.359 12.1533 14.41 12.3038 14.4131 12.459V22.9246C14.415 23.0213 14.3977 23.1175 14.362 23.2074C14.3263 23.2973 14.273 23.3793 14.2053 23.4484C14.1375 23.5175 14.0567 23.5723 13.9674 23.6098C13.8782 23.6473 13.7824 23.6666 13.6857 23.6665Z" fill="#00401A"/>
<path d="M5.82461 21.1011C5.74233 21.1001 5.66063 21.087 5.58213 21.0623L5.47059 21.0235C5.3287 20.9726 5.20599 20.8791 5.11919 20.7559C5.0324 20.6326 4.98575 20.4856 4.98563 20.3349V9.98575C4.98563 9.79282 5.06227 9.60779 5.19869 9.47136C5.33511 9.33494 5.52014 9.2583 5.71307 9.2583C5.906 9.2583 6.09103 9.33494 6.22745 9.47136C6.36387 9.60779 6.44052 9.79282 6.44052 9.98575V19.9857C6.49803 20.0791 6.53397 20.1842 6.54572 20.2932C6.55746 20.4023 6.54472 20.5126 6.50841 20.6161C6.459 20.758 6.36658 20.881 6.24403 20.9679C6.12147 21.0548 5.97486 21.1014 5.82461 21.1011Z" fill="#00401A"/>
<path d="M19.0882 14.9178C18.9937 14.9178 18.9002 14.8991 18.8131 14.8626C18.726 14.8262 18.6469 14.7728 18.5806 14.7056C18.5143 14.6384 18.462 14.5586 18.4267 14.471C18.3915 14.3834 18.374 14.2897 18.3753 14.1952C18.3753 14.0023 18.4519 13.8173 18.5883 13.6808C18.7248 13.5444 18.9098 13.4678 19.1027 13.4678C19.2957 13.4678 19.4807 13.5444 19.6171 13.6808C19.7535 13.8173 19.8302 14.0023 19.8302 14.1952C19.8263 14.389 19.7463 14.5735 19.6075 14.7088C19.4686 14.844 19.282 14.9191 19.0882 14.9178Z" fill="#00401A"/>
<path d="M0.737184 9.15152C0.569837 9.15065 0.407908 9.0921 0.278697 8.98575C0.149485 8.8794 0.0608921 8.73176 0.0278532 8.5677C-0.0051857 8.40365 0.0193499 8.23321 0.0973239 8.08514C0.175298 7.93707 0.301941 7.82041 0.455905 7.75483L18.8845 0.0827064C18.9732 0.0435326 19.0687 0.0224665 19.1656 0.0207447C19.2625 0.0190229 19.3588 0.0366805 19.4488 0.0726803C19.5388 0.10868 19.6206 0.162296 19.6896 0.23038C19.7586 0.298464 19.8132 0.379643 19.8504 0.469149C19.8876 0.558656 19.9065 0.654685 19.906 0.751598C19.9055 0.84851 19.8857 0.944352 19.8477 1.03349C19.8096 1.12264 19.7542 1.20328 19.6846 1.27069C19.6149 1.33811 19.5325 1.39093 19.4422 1.42605L1.01361 9.09817C0.926046 9.13454 0.831993 9.15269 0.737184 9.15152Z" fill="#00401A"/>
<path d="M6.29476 10.7276C6.13148 10.724 5.97417 10.6656 5.84814 10.5617C5.72211 10.4578 5.6347 10.3146 5.59998 10.155C5.56527 9.9954 5.58526 9.82878 5.65675 9.68194C5.72824 9.5351 5.84706 9.41658 5.99408 9.34548L14.3209 5.88284C14.4981 5.81394 14.6951 5.81713 14.87 5.89171C15.0448 5.96629 15.1835 6.10634 15.2564 6.28189C15.3293 6.45745 15.3306 6.65456 15.26 6.83104C15.1894 7.00752 15.0525 7.14935 14.8786 7.22619L6.57119 10.6694C6.48389 10.7072 6.38988 10.727 6.29476 10.7276Z" fill="#00401A"/>
<path d="M13.6713 13.1962C13.5268 13.1964 13.3857 13.153 13.2662 13.0716C13.1468 12.9903 13.0548 12.8748 13.002 12.7403C12.9623 12.6514 12.9408 12.5553 12.9388 12.4579C12.9369 12.3605 12.9545 12.2637 12.9907 12.1732C13.0269 12.0828 13.0809 12.0005 13.1495 11.9313C13.2181 11.8621 13.2999 11.8074 13.39 11.7704L20.7227 8.71997C20.8109 8.68303 20.9055 8.66383 21.0011 8.66346C21.0967 8.66309 21.1915 8.68155 21.28 8.71781C21.3685 8.75406 21.449 8.80738 21.5168 8.87474C21.5847 8.94209 21.6387 9.02216 21.6756 9.11037C21.7126 9.19857 21.7318 9.29319 21.7321 9.38882C21.7325 9.48444 21.714 9.57921 21.6778 9.6677C21.6415 9.75619 21.5882 9.83667 21.5208 9.90455C21.4535 9.97243 21.3734 10.0264 21.2852 10.0633L13.9526 13.1428C13.8633 13.1792 13.7677 13.1973 13.6713 13.1962Z" fill="#00401A"/>
<path d="M24.7866 3.84607C24.6899 3.84543 24.5943 3.82565 24.5053 3.78787L18.9039 1.42125C18.8129 1.38539 18.7302 1.3313 18.6608 1.26231C18.5915 1.19331 18.537 1.11086 18.5006 1.02003C18.4643 0.929191 18.4469 0.831887 18.4495 0.73409C18.4522 0.636294 18.4748 0.540069 18.516 0.451327C18.553 0.361185 18.6077 0.27939 18.6769 0.210799C18.7461 0.142207 18.8284 0.0882156 18.9188 0.0520294C19.0093 0.0158432 19.1061 -0.00180072 19.2035 0.000145083C19.3009 0.00209089 19.397 0.0235865 19.4859 0.0633564L25.0921 2.42998C25.1822 2.46696 25.264 2.52168 25.3326 2.59088C25.4012 2.66008 25.4552 2.74235 25.4914 2.83282C25.5276 2.92328 25.5452 3.02009 25.5433 3.11751C25.5413 3.21492 25.5198 3.31096 25.4801 3.3999C25.4221 3.53492 25.3251 3.64953 25.2015 3.72903C25.078 3.80853 24.9335 3.84929 24.7866 3.84607Z" fill="#00401A"/>
<path d="M37.4633 9.19514C37.3666 9.1945 37.271 9.17472 37.182 9.13694L24.5051 3.80234C24.4135 3.76765 24.3299 3.71484 24.2593 3.64707C24.1886 3.5793 24.1324 3.49796 24.0939 3.40794C24.0554 3.31791 24.0355 3.22104 24.0354 3.12314C24.0353 3.02524 24.0549 2.92832 24.0931 2.83818C24.1313 2.74804 24.1873 2.66655 24.2578 2.59857C24.3282 2.5306 24.4117 2.47755 24.5031 2.4426C24.5946 2.40764 24.6921 2.39151 24.79 2.39516C24.8878 2.39881 24.9839 2.42217 25.0725 2.46385L37.7494 7.79844C37.9038 7.86419 38.0306 7.98126 38.1086 8.12983C38.1865 8.2784 38.2106 8.44934 38.177 8.61368C38.1433 8.77803 38.0539 8.92569 37.9238 9.03166C37.7937 9.13762 37.6311 9.19537 37.4633 9.19514Z" fill="#00401A"/>
<path d="M13.6907 23.6665C13.5678 23.6661 13.447 23.6348 13.3393 23.5755C13.2317 23.5162 13.1407 23.4307 13.0748 23.327L9.19509 17.2407C9.13443 17.1607 9.091 17.0689 9.06753 16.9713C9.04406 16.8736 9.04107 16.7722 9.05874 16.6733C9.07641 16.5744 9.11436 16.4803 9.1702 16.3968C9.22604 16.3134 9.29856 16.2424 9.38319 16.1883C9.46782 16.1342 9.56273 16.0983 9.66195 16.0827C9.76116 16.0671 9.86252 16.0722 9.95966 16.0977C10.0568 16.1232 10.1476 16.1686 10.2263 16.2309C10.3051 16.2933 10.3701 16.3712 10.4172 16.4599L14.2969 22.5462C14.3657 22.6563 14.404 22.7828 14.4078 22.9126C14.4117 23.0424 14.3809 23.1709 14.3187 23.2849C14.2566 23.3989 14.1652 23.4943 14.054 23.5614C13.9427 23.6284 13.8157 23.6647 13.6858 23.6665H13.6907Z" fill="#00401A"/>
<path d="M5.82455 21.1011C5.72147 21.1019 5.61945 21.0802 5.52564 21.0375C5.43182 20.9947 5.34846 20.932 5.28139 20.8538C5.21744 20.7829 5.16828 20.6999 5.13679 20.6098C5.10529 20.5197 5.09209 20.4242 5.09796 20.3289C5.10383 20.2336 5.12866 20.1404 5.17098 20.0549C5.2133 19.9693 5.27227 19.893 5.34443 19.8305L9.32598 16.3048C9.47068 16.1762 9.66055 16.1103 9.85381 16.1217C10.0471 16.1331 10.2279 16.2207 10.3565 16.3654C10.4852 16.5101 10.551 16.7 10.5397 16.8933C10.5283 17.0865 10.4406 17.2674 10.2959 17.396L6.31436 20.9168C6.18088 21.039 6.00545 21.105 5.82455 21.1011Z" fill="#00401A"/>
<path d="M21.028 10.1457C20.9244 10.1463 20.8219 10.1248 20.7273 10.0826L14.3355 7.20681C14.2454 7.16939 14.1638 7.11424 14.0955 7.04465C14.0272 6.97505 13.9736 6.89244 13.9378 6.8017C13.9021 6.71097 13.885 6.61398 13.8874 6.51649C13.8899 6.41901 13.912 6.32301 13.9523 6.23423C13.9927 6.14544 14.0504 6.06566 14.1222 5.99965C14.194 5.93363 14.2783 5.88272 14.3701 5.84994C14.462 5.81716 14.5595 5.80319 14.6568 5.80884C14.7542 5.8145 14.8494 5.83967 14.9368 5.88286L21.3044 8.75384C21.4552 8.82092 21.5787 8.93727 21.6546 9.08381C21.7306 9.23034 21.7544 9.39833 21.7223 9.5602C21.6901 9.72208 21.6039 9.86821 21.4777 9.9746C21.3516 10.081 21.193 10.1413 21.028 10.1457Z" fill="#00401A"/>
<path d="M42.7109 40H36.4791C35.2945 39.9988 34.1586 39.5279 33.3205 38.6907C32.4824 37.8535 32.0103 36.7182 32.0077 35.5335V29.2969C32.0103 28.1123 32.4824 26.9769 33.3205 26.1397C34.1586 25.3025 35.2945 24.8317 36.4791 24.8304H42.7109C43.8959 24.8304 45.0325 25.3008 45.8709 26.1383C46.7093 26.9758 47.181 28.1119 47.1822 29.2969V35.5335C47.181 36.7186 46.7093 37.8546 45.8709 38.6921C45.0325 39.5296 43.8959 40 42.7109 40ZM36.4791 26.2853C35.6799 26.2853 34.9134 26.6024 34.3478 27.1671C33.7823 27.7317 33.4639 28.4977 33.4626 29.2969V35.5335C33.4639 36.3327 33.7823 37.0987 34.3478 37.6634C34.9134 38.228 35.6799 38.5451 36.4791 38.5451H42.7109C43.5101 38.5451 44.2766 38.228 44.8421 37.6634C45.4077 37.0987 45.7261 36.3327 45.7274 35.5335V29.2969C45.7261 28.4977 45.4077 27.7317 44.8421 27.1671C44.2766 26.6024 43.5101 26.2853 42.7109 26.2853H36.4791Z" fill="#00401A"/>
<path d="M33.2832 28.0748C33.0903 28.0748 32.9053 27.9981 32.7688 27.8617C32.6324 27.7253 32.5558 27.5403 32.5558 27.3473V24.4376C32.5504 23.0817 33.0298 21.7686 33.9075 20.7352C34.7853 19.7019 36.0035 19.0163 37.3424 18.8023C37.6483 18.75 37.9582 18.724 38.2686 18.7247H40.611C41.7353 18.7228 42.8351 19.0532 43.7722 19.6745C44.7092 20.2957 45.4418 21.1801 45.8777 22.2164C45.9194 22.305 45.9428 22.4011 45.9464 22.4989C45.9501 22.5968 45.9339 22.6943 45.899 22.7858C45.864 22.8772 45.811 22.9607 45.743 23.0311C45.675 23.1016 45.5935 23.1576 45.5034 23.1958C45.4132 23.234 45.3163 23.2536 45.2184 23.2535C45.1205 23.2534 45.0237 23.2335 44.9336 23.195C44.8436 23.1565 44.7623 23.1003 44.6945 23.0296C44.6267 22.959 44.5739 22.8754 44.5392 22.7838C44.2136 22.0112 43.6671 21.3519 42.9683 20.8886C42.2695 20.4254 41.4495 20.1787 40.611 20.1796H38.2686C38.0379 20.1797 37.8075 20.1992 37.58 20.2378C36.5812 20.3975 35.6725 20.9091 35.0179 21.6801C34.3633 22.4512 34.0061 23.431 34.0107 24.4424V27.3522C34.0094 27.5443 33.9322 27.7281 33.7959 27.8634C33.6596 27.9988 33.4753 28.0748 33.2832 28.0748Z" fill="#00401A"/>
<path d="M39.5874 34.9758C39.3945 34.9758 39.2095 34.8992 39.0731 34.7628C38.9366 34.6263 38.86 34.4413 38.86 34.2484V30.5287C38.86 30.3358 38.9366 30.1508 39.0731 30.0143C39.2095 29.8779 39.3945 29.8013 39.5874 29.8013C39.7804 29.8013 39.9654 29.8779 40.1018 30.0143C40.2382 30.1508 40.3149 30.3358 40.3149 30.5287V34.2484C40.3149 34.4413 40.2382 34.6263 40.1018 34.7628C39.9654 34.8992 39.7804 34.9758 39.5874 34.9758Z" fill="#00401A"/>
</svg>
