<svg width="40" height="40" viewBox="0 0 40 40" fill="none" xmlns="http://www.w3.org/2000/svg">
<ellipse cx="27.5" cy="33" rx="5.5" ry="5" fill="#FFA62B"/>
<path fill-rule="evenodd" clip-rule="evenodd" d="M29.5238 25.7141C28.4718 25.7141 27.619 26.5669 27.619 27.6189C27.619 28.6709 28.4718 29.5237 29.5238 29.5237C30.5758 29.5237 31.4285 28.6709 31.4285 27.6189C31.4285 26.5669 30.5758 25.7141 29.5238 25.7141ZM25.7142 27.6189C25.7142 25.5149 27.4198 23.8094 29.5238 23.8094C31.6277 23.8094 33.3333 25.5149 33.3333 27.6189C33.3333 29.7229 31.6277 31.4284 29.5238 31.4284C27.4198 31.4284 25.7142 29.7229 25.7142 27.6189Z" fill="#00401A"/>
<path fill-rule="evenodd" clip-rule="evenodd" d="M10.4766 6.66672C9.42463 6.66672 8.57184 7.51952 8.57184 8.57148C8.57184 9.62344 9.42463 10.4762 10.4766 10.4762C11.5286 10.4762 12.3814 9.62344 12.3814 8.57148C12.3814 7.51952 11.5286 6.66672 10.4766 6.66672ZM6.66708 8.57148C6.66708 6.46754 8.37265 4.76196 10.4766 4.76196C12.5805 4.76196 14.2861 6.46754 14.2861 8.57148C14.2861 10.6754 12.5805 12.381 10.4766 12.381C8.37265 12.381 6.66708 10.6754 6.66708 8.57148Z" fill="#00401A"/>
<path fill-rule="evenodd" clip-rule="evenodd" d="M29.5246 31.4284C26.5314 31.4284 23.9966 33.4018 23.1549 36.1208L21.3354 35.5574C22.417 32.0635 25.673 29.5237 29.5246 29.5237C33.3764 29.5237 36.6324 32.0635 37.7139 35.5574L35.8945 36.1208C35.0528 33.4018 32.5179 31.4284 29.5246 31.4284Z" fill="#00401A"/>
<path fill-rule="evenodd" clip-rule="evenodd" d="M10.4775 12.381C7.48431 12.381 4.94952 14.3543 4.10782 17.0734L2.28825 16.51C3.36986 13.0161 6.62584 10.4763 10.4775 10.4763C14.3292 10.4763 17.5852 13.0161 18.6668 16.51L16.8473 17.0734C16.0055 14.3543 13.4707 12.381 10.4775 12.381Z" fill="#00401A"/>
<path fill-rule="evenodd" clip-rule="evenodd" d="M29.5233 20.9524C24.7894 20.9524 20.9519 24.7899 20.9519 29.5238C20.9519 34.2577 24.7894 38.0952 29.5233 38.0952C34.2572 38.0952 38.0948 34.2577 38.0948 29.5238C38.0948 24.7899 34.2572 20.9524 29.5233 20.9524ZM19.0472 29.5238C19.0472 23.7379 23.7374 19.0476 29.5233 19.0476C35.3092 19.0476 39.9995 23.7379 39.9995 29.5238C39.9995 35.3097 35.3092 40 29.5233 40C23.7374 40 19.0472 35.3097 19.0472 29.5238Z" fill="#00401A"/>
<path fill-rule="evenodd" clip-rule="evenodd" d="M10.4762 1.90476C5.74232 1.90476 1.90476 5.74232 1.90476 10.4762C1.90476 15.21 5.74232 19.0476 10.4762 19.0476C15.21 19.0476 19.0476 15.21 19.0476 10.4762C19.0476 5.74232 15.21 1.90476 10.4762 1.90476ZM0 10.4762C0 4.69034 4.69034 0 10.4762 0C16.2621 0 20.9524 4.69034 20.9524 10.4762C20.9524 16.2621 16.2621 20.9524 10.4762 20.9524C4.69034 20.9524 0 16.2621 0 10.4762Z" fill="#00401A"/>
<path fill-rule="evenodd" clip-rule="evenodd" d="M8.57184 26.6667C6.99388 26.6667 5.7147 27.946 5.7147 29.5239C5.7147 31.1018 6.99388 32.381 8.57184 32.381C10.1498 32.381 11.429 31.1018 11.429 29.5239C11.429 27.946 10.1498 26.6667 8.57184 26.6667ZM3.80994 29.5239C3.80994 26.894 5.94192 24.762 8.57184 24.762C11.2018 24.762 13.3337 26.894 13.3337 29.5239C13.3337 32.1538 11.2018 34.2858 8.57184 34.2858C5.94192 34.2858 3.80994 32.1538 3.80994 29.5239Z" fill="#00401A"/>
<path fill-rule="evenodd" clip-rule="evenodd" d="M31.429 7.61905C33.0069 7.61905 34.2861 8.89823 34.2861 10.4762C34.2861 12.0542 33.0069 13.3333 31.429 13.3333C29.8511 13.3333 28.5718 12.0542 28.5718 10.4762C28.5718 8.89823 29.8511 7.61905 31.429 7.61905ZM36.1909 10.4762C36.1909 7.84627 34.0589 5.71429 31.429 5.71429C28.7991 5.71429 26.6671 7.84627 26.6671 10.4762C26.6671 13.1061 28.7991 15.2381 31.429 15.2381C34.0589 15.2381 36.1909 13.1061 36.1909 10.4762Z" fill="#00401A"/>
<path fill-rule="evenodd" clip-rule="evenodd" d="M12.3813 28.5714H20.0004V30.4761H12.3813V28.5714Z" fill="#00401A"/>
<path fill-rule="evenodd" clip-rule="evenodd" d="M27.619 9.52374H20V11.4285H27.619V9.52374Z" fill="#00401A"/>
<path fill-rule="evenodd" clip-rule="evenodd" d="M17.8162 16.4694L23.5305 22.1837L22.1836 23.5307L16.4694 17.8165L17.8162 16.4694Z" fill="#00401A"/>
</svg>
