<svg width="45" height="40" viewBox="0 0 45 40" fill="none" xmlns="http://www.w3.org/2000/svg">
<ellipse cx="30.5" cy="15" rx="5.5" ry="5" fill="#FFA62B"/>
<path d="M44.6501 28.2967C44.4299 27.6832 44.3513 27.4551 44.3119 27.3607C44.0909 26.7686 43.686 26.2629 43.1567 25.9175C42.6274 25.5722 42.0014 25.4054 41.3704 25.4416C41.2524 25.4416 41.1344 25.4495 41.0086 25.4574C40.0333 25.536 39.0738 25.7012 38.1457 25.8506C37.3513 25.9843 36.5255 26.118 35.7233 26.2046C33.888 26.4138 32.0407 26.4979 30.1941 26.4562C28.6384 26.4095 27.0865 26.2756 25.5458 26.0551C25.6136 25.5091 25.5236 24.955 25.2863 24.4585C25.0907 24.0581 24.8109 23.7047 24.4661 23.4223C24.1213 23.14 23.7197 22.9354 23.2885 22.8226L15.8324 20.7934C14.6551 20.4791 13.419 20.4548 12.2302 20.7226L9.02126 21.4383V18.7642C9.02126 18.347 8.85554 17.9469 8.56054 17.6519C8.26554 17.3569 7.86544 17.1912 7.44824 17.1912H1.57302C1.15583 17.1912 0.755725 17.3569 0.460726 17.6519C0.165728 17.9469 0 18.347 0 18.7642V38.4269C0.00124483 38.8437 0.167373 39.2431 0.462102 39.5378C0.756831 39.8326 1.15621 39.9987 1.57302 39.9999H7.44824C7.86505 39.9987 8.26443 39.8326 8.55916 39.5378C8.85389 39.2431 9.02002 38.8437 9.02126 38.4269V36.3663L22.0223 38.7258C22.6192 38.8331 23.2247 38.8858 23.8312 38.8831C25.0964 38.8837 26.3505 38.6463 27.5278 38.1831L42.8805 32.1034C43.6166 31.8288 44.215 31.2754 44.5462 30.563C44.8773 29.8506 44.9147 29.0364 44.6501 28.2967ZM7.44824 38.4269H1.57302V18.7642H7.44824V38.4269ZM42.2985 30.6405L26.9537 36.7202C25.4771 37.3027 23.8671 37.4607 22.3054 37.1764L9.02126 34.7696V23.0507L12.5763 22.2563C13.516 22.0463 14.4925 22.0652 15.4235 22.3113L22.8717 24.3405C23.0865 24.3936 23.2872 24.4928 23.4597 24.6314C23.6322 24.7699 23.7724 24.9445 23.8706 25.1428C23.9559 25.3187 24.0021 25.511 24.0062 25.7065C24.0103 25.902 23.9721 26.096 23.8942 26.2753C23.757 26.5742 23.5305 26.8231 23.246 26.9879C22.9615 27.1527 22.6329 27.2252 22.3054 27.1956L15.8403 25.8585C15.637 25.8165 15.4253 25.8566 15.2515 25.9701C15.0776 26.0835 14.9557 26.2611 14.9122 26.4641C14.8701 26.6684 14.91 26.881 15.0233 27.0562C15.1366 27.2313 15.3142 27.3548 15.5178 27.4001L22.0301 28.745C22.0558 28.7515 22.0823 28.7541 22.1088 28.7529C22.2131 28.7657 22.3183 28.771 22.4234 28.7686C22.907 28.7689 23.3844 28.6602 23.8202 28.4505C24.2559 28.2408 24.6388 27.9355 24.9402 27.5574C26.6646 27.8205 28.4034 27.9781 30.1469 28.0293C32.0644 28.0724 33.9826 27.9857 35.8884 27.7697C36.7379 27.6753 37.5873 27.5416 38.4053 27.4001C39.3019 27.2506 40.23 27.1012 41.1423 27.0225C41.4813 26.9561 41.8328 27.0062 42.1398 27.1647C42.4468 27.3231 42.6911 27.5807 42.8333 27.8956V27.9034L43.1715 28.8315C43.2938 29.1872 43.2708 29.5769 43.1073 29.9157C42.9438 30.2544 42.6531 30.5149 42.2985 30.6405Z" fill="#00401A"/>
<path d="M40.8356 11.1744L39.1525 9.02726L39.5379 6.32953C39.5605 6.15515 39.525 5.97816 39.4368 5.82601C39.3487 5.67386 39.2128 5.55504 39.0502 5.48796L36.5255 4.48123L35.5109 1.94867C35.4446 1.78554 35.326 1.6491 35.1736 1.56082C35.0213 1.47254 34.8439 1.43743 34.6694 1.46104L31.9716 1.84643L29.8323 0.17116C29.694 0.0603669 29.522 0 29.3447 0C29.1674 0 28.9954 0.0603669 28.8571 0.17116L26.7178 1.84643L24.02 1.46104C23.8455 1.43743 23.6681 1.47254 23.5158 1.56082C23.3634 1.6491 23.2448 1.78554 23.1785 1.94867L22.1639 4.48123L19.6392 5.48796C19.4766 5.55504 19.3407 5.67386 19.2526 5.82601C19.1644 5.97816 19.1289 6.15515 19.1515 6.32953L19.5369 9.02726L17.8538 11.1744C17.7468 11.313 17.6887 11.4831 17.6887 11.6581C17.6887 11.8332 17.7468 12.0033 17.8538 12.1418L19.5369 14.289L19.1515 16.9789C19.1252 17.1537 19.1592 17.3322 19.2478 17.4852C19.3364 17.6381 19.4744 17.7563 19.6392 17.8204L22.1639 18.835L23.1785 21.3597C23.2437 21.5236 23.3622 21.6608 23.5148 21.7492C23.6675 21.8377 23.8454 21.8722 24.02 21.8474L26.7178 21.462L28.8571 23.1451C28.9967 23.2528 29.1683 23.3109 29.3447 23.3103C29.5209 23.3096 29.692 23.2517 29.8323 23.1451L31.9716 21.462L34.6694 21.8474C34.8431 21.8728 35.0203 21.8394 35.1728 21.7524C35.3253 21.6655 35.4443 21.53 35.5109 21.3676L36.5255 18.835L39.0502 17.8204C39.2141 17.7552 39.3513 17.6367 39.4397 17.4841C39.5282 17.3314 39.5627 17.1535 39.5379 16.9789L39.1525 14.289L40.8356 12.1418C40.9426 12.0033 41.0007 11.8332 41.0007 11.6581C41.0007 11.4831 40.9426 11.313 40.8356 11.1744ZM37.7053 13.5811C37.6394 13.6646 37.5914 13.7608 37.5644 13.8636C37.5373 13.9665 37.5317 14.0738 37.548 14.1789L37.8941 16.5935L35.621 17.498C35.5224 17.5375 35.4331 17.5971 35.3586 17.6729C35.2842 17.7487 35.2262 17.8391 35.1885 17.9384L34.2761 20.2036L31.8615 19.8575C31.7559 19.8431 31.6484 19.8503 31.5457 19.8787C31.4429 19.9071 31.347 19.9561 31.2638 20.0227L29.3447 21.5249L27.4256 20.0227C27.2866 19.9127 27.1152 19.8519 26.938 19.8496C26.8987 19.8496 26.8593 19.8575 26.8279 19.8575L24.4054 20.2036L23.5009 17.9384C23.4614 17.8389 23.4019 17.7485 23.3262 17.6727C23.2504 17.597 23.16 17.5375 23.0605 17.498L20.7953 16.5935L21.1414 14.1789C21.1557 14.0738 21.1492 13.9669 21.1223 13.8644C21.0953 13.7618 21.0483 13.6656 20.9841 13.5811L19.474 11.6542L20.9841 9.73512C21.0483 9.65071 21.0953 9.55447 21.1223 9.4519C21.1492 9.34933 21.1557 9.24245 21.1414 9.13737L20.7953 6.72278L23.0605 5.81043C23.1598 5.77266 23.2502 5.71472 23.326 5.64027C23.4018 5.56582 23.4614 5.47647 23.5009 5.37785L24.4054 3.11271L26.8279 3.4509C26.933 3.46669 27.0402 3.46088 27.1429 3.43384C27.2457 3.40679 27.3419 3.35907 27.4256 3.2936L29.3447 1.7835L31.2638 3.2936C31.3475 3.35907 31.4437 3.40679 31.5464 3.43384C31.6492 3.46088 31.7564 3.46669 31.8615 3.4509L34.2761 3.11271L35.1885 5.37785C35.2276 5.47543 35.2861 5.56406 35.3605 5.63841C35.4348 5.71275 35.5235 5.77127 35.621 5.81043L37.8941 6.72278L37.548 9.13737C37.5317 9.24246 37.5373 9.34978 37.5644 9.45263C37.5914 9.55547 37.6394 9.65163 37.7053 9.73512L39.2154 11.6542L37.7053 13.5811Z" fill="#00401A"/>
<path d="M25.4122 6.54193C24.9455 6.54193 24.4893 6.68031 24.1013 6.93958C23.7133 7.19885 23.4108 7.56736 23.2323 7.99851C23.0537 8.42965 23.0069 8.90408 23.098 9.36178C23.189 9.81948 23.4138 10.2399 23.7437 10.5699C24.0737 10.8999 24.4942 11.1246 24.9519 11.2157C25.4096 11.3067 25.884 11.26 26.3151 11.0814C26.7463 10.9028 27.1148 10.6004 27.3741 10.2123C27.6333 9.82432 27.7717 9.36813 27.7717 8.90146C27.7717 8.27567 27.5231 7.67552 27.0806 7.23302C26.6381 6.79052 26.038 6.54193 25.4122 6.54193ZM25.4122 9.68797C25.2566 9.68797 25.1046 9.64184 24.9752 9.55542C24.8459 9.469 24.7451 9.34616 24.6855 9.20244C24.626 9.05873 24.6104 8.90059 24.6408 8.74802C24.6711 8.59545 24.746 8.45531 24.856 8.34531C24.966 8.23532 25.1062 8.16041 25.2587 8.13006C25.4113 8.09971 25.5695 8.11529 25.7132 8.17482C25.8569 8.23435 25.9797 8.33516 26.0661 8.4645C26.1526 8.59384 26.1987 8.7459 26.1987 8.90146C26.1987 9.11005 26.1158 9.31011 25.9683 9.45761C25.8208 9.6051 25.6208 9.68797 25.4122 9.68797Z" fill="#00401A"/>
<path d="M33.2773 12.0474C32.8106 12.0474 32.3544 12.1858 31.9664 12.4451C31.5783 12.7043 31.2759 13.0729 31.0973 13.504C30.9187 13.9351 30.872 14.4096 30.9631 14.8673C31.0541 15.325 31.2788 15.7454 31.6088 16.0754C31.9388 16.4054 32.3592 16.6301 32.8169 16.7211C33.2746 16.8122 33.7491 16.7655 34.1802 16.5869C34.6114 16.4083 34.9799 16.1059 35.2391 15.7178C35.4984 15.3298 35.6368 14.8736 35.6368 14.407C35.6368 13.7812 35.3882 13.181 34.9457 12.7385C34.5032 12.296 33.903 12.0474 33.2773 12.0474ZM33.2773 15.1935C33.1217 15.1935 32.9696 15.1473 32.8403 15.0609C32.711 14.9745 32.6101 14.8517 32.5506 14.7079C32.4911 14.5642 32.4755 14.4061 32.5059 14.2535C32.5362 14.1009 32.6111 13.9608 32.7211 13.8508C32.8311 13.7408 32.9712 13.6659 33.1238 13.6356C33.2764 13.6052 33.4345 13.6208 33.5782 13.6803C33.722 13.7398 33.8448 13.8407 33.9312 13.97C34.0176 14.0993 34.0638 14.2514 34.0638 14.407C34.0638 14.6155 33.9809 14.8156 33.8334 14.9631C33.6859 15.1106 33.4858 15.1935 33.2773 15.1935Z" fill="#00401A"/>
<path d="M24.8262 15.7221C24.8952 15.799 24.9788 15.8615 25.072 15.9061C25.1653 15.9507 25.2664 15.9764 25.3696 15.9819C25.4728 15.9874 25.5761 15.9725 25.6735 15.938C25.771 15.9035 25.8607 15.8502 25.9375 15.7811L33.8026 8.70247C33.9577 8.56292 34.051 8.36748 34.062 8.15914C34.073 7.9508 34.0007 7.74662 33.8612 7.59153C33.7216 7.43644 33.5262 7.34314 33.3178 7.33215C33.1095 7.32116 32.9053 7.39338 32.7502 7.53293L24.8851 14.6115C24.7301 14.751 24.6368 14.9463 24.6257 15.1546C24.6146 15.3628 24.6867 15.567 24.8262 15.7221Z" fill="#00401A"/>
</svg>
