<svg width="144" height="45" viewBox="0 0 144 45" fill="none" xmlns="http://www.w3.org/2000/svg">
<path d="M9.13474 25.7116H1.82695C0.817846 25.7116 0 24.8938 0 23.8847C0 22.8756 0.817846 22.0577 1.82695 22.0577H9.13474C10.1438 22.0577 10.9617 22.8756 10.9617 23.8847C10.9617 24.8938 10.1438 25.7116 9.13474 25.7116Z" fill="#00401A"/>
<path d="M12.1243 11.096H10.1311C9.12198 11.096 8.30414 10.2782 8.30414 9.26906C8.30414 8.25995 9.12198 7.44211 10.1311 7.44211H12.1243C13.1334 7.44211 13.9513 8.25995 13.9513 9.26906C13.9513 10.2782 13.1334 11.096 12.1243 11.096Z" fill="#00401A"/>
<path d="M24.3097 36C21.8242 36 19.8097 38.0145 19.8097 40.5C19.8097 42.9855 21.8242 45 24.3097 45C26.7952 45 28.8097 42.9855 28.8097 40.5C28.8097 38.0145 26.7952 36 24.3097 36ZM24.3097 41.8847C23.5447 41.8847 22.9251 41.265 22.9251 40.5C22.9251 39.735 23.5447 39.1154 24.3097 39.1154C25.0747 39.1154 25.6944 39.735 25.6944 40.5C25.6944 41.265 25.0747 41.8847 24.3097 41.8847Z" fill="#FFA62B"/>
<path d="M42.6562 36C40.1707 36 38.1562 38.0145 38.1562 40.5C38.1562 42.9855 40.1707 45 42.6562 45C45.1417 45 47.1562 42.9855 47.1562 40.5C47.1562 38.0145 45.1413 36 42.6562 36ZM42.6562 41.8847C41.8912 41.8847 41.2715 41.265 41.2715 40.5C41.2715 39.735 41.8912 39.1154 42.6562 39.1154C43.4212 39.1154 44.0408 39.735 44.0408 40.5C44.0408 41.265 43.4212 41.8847 42.6562 41.8847Z" fill="#FFA62B"/>
<path d="M52.6601 36.0451L47.2288 10.2602C46.886 8.61913 45.4358 7.44253 43.7567 7.44253H42.0018C41.9085 7.38356 41.8114 7.33523 41.7078 7.29714C41.1295 3.18129 37.585 0 33.3098 0C29.0695 0 25.5454 3.12927 24.9258 7.19639C24.7943 7.26233 24.6694 7.34506 24.5588 7.44212H17.4386C16.4311 7.44212 15.6108 8.25915 15.6108 9.26989C15.6108 10.2774 16.4311 11.0976 17.4386 11.0976H19.834C20.8447 11.0976 21.6617 11.9147 21.6617 12.9217C21.6617 13.4271 21.4574 13.8841 21.1253 14.213C20.7964 14.5451 20.3393 14.7495 19.834 14.7495H10.7959C9.78515 14.7495 8.96813 15.5665 8.96813 16.5773C8.96813 17.5847 9.78515 18.405 10.7959 18.405H19.7648C20.7722 18.405 21.5925 19.2221 21.5925 20.2291C21.5925 20.7345 21.3882 21.1915 21.056 21.5237C20.7235 21.8525 20.2669 22.0569 19.7648 22.0569H14.7803C13.7728 22.0569 12.9562 22.8772 12.9562 23.8846C12.9562 24.8921 13.7732 25.7124 14.7803 25.7124H16.1371C17.1339 25.7263 17.937 26.5397 17.937 27.5402C17.937 28.0456 17.7326 28.4989 17.4005 28.8314C17.0716 29.1603 16.6146 29.3647 16.1092 29.3647H7.80504C6.79758 29.3647 5.98096 30.185 5.98096 31.1924C5.98096 32.2032 6.79799 33.0202 7.80504 33.0202H16.452C17.4628 33.0202 18.2798 33.8372 18.2798 34.848C18.2798 35.3501 18.0754 35.8067 17.7466 36.1392C17.4144 36.4681 16.9574 36.6725 16.452 36.6725H9.8646C8.85714 36.6725 8.03683 37.4928 8.03683 38.5002C8.03683 39.511 8.85714 40.328 9.8646 40.328H18.4284C18.5185 37.1573 21.1179 34.6166 24.3094 34.6166C27.5009 34.6166 30.1007 37.1573 30.1908 40.328H36.7745C36.8646 37.1573 39.4643 34.6166 42.6559 34.6166C45.8474 34.6166 48.4471 37.1573 48.5368 40.328H49.1843C51.438 40.3268 53.1237 38.2537 52.6601 36.0451ZM26.6671 7.31065C27.2245 4.14697 29.9868 1.7307 33.3098 1.7307C36.6778 1.7307 39.4713 4.2125 39.9697 7.44212H26.8367C26.7851 7.39707 26.7261 7.35201 26.6671 7.31065ZM25.6805 28.831C25.3484 29.1599 24.8914 29.3643 24.386 29.3643H21.7588C20.7481 29.3643 19.931 28.5472 19.931 27.5402C19.931 27.0348 20.1354 26.5778 20.4675 26.2456C20.7964 25.9168 21.2534 25.7124 21.7588 25.7124H24.386C25.3967 25.7124 26.2138 26.5294 26.2138 27.5402C26.2138 28.0456 26.0094 28.4989 25.6805 28.831ZM41.8667 15.5628C41.2471 19.6304 37.723 22.7592 33.4826 22.7592C29.2075 22.7592 25.6629 19.5779 25.0847 15.4625C24.4306 15.2131 23.9633 14.5869 23.9633 13.8461C23.9633 12.8906 24.7386 12.1154 25.6941 12.1154C26.6495 12.1154 27.4248 12.8906 27.4248 13.8461C27.4248 14.3793 27.179 14.8498 26.7982 15.1685C27.2343 18.471 30.0626 21.0289 33.4826 21.0289C36.8056 21.0289 39.568 18.6127 40.1253 15.449C39.6683 15.1373 39.3673 14.6148 39.3673 14.0193C39.3673 13.0638 40.1425 12.2886 41.098 12.2886C42.0534 12.2886 42.8287 13.0638 42.8287 14.0193C42.8291 14.6975 42.4343 15.2794 41.8667 15.5628Z" fill="#00401A"/>
<path d="M76.6771 7.436V20H74.1571V11.828L70.7911 20H68.8831L65.4991 11.828V20H62.9791V7.436H65.8411L69.8371 16.778L73.8331 7.436H76.6771ZM88.5826 10.028V20H86.0446V18.74C85.7206 19.172 85.2946 19.514 84.7666 19.766C84.2506 20.006 83.6866 20.126 83.0746 20.126C82.2946 20.126 81.6046 19.964 81.0046 19.64C80.4046 19.304 79.9306 18.818 79.5826 18.182C79.2466 17.534 79.0786 16.766 79.0786 15.878V10.028H81.5986V15.518C81.5986 16.31 81.7966 16.922 82.1926 17.354C82.5886 17.774 83.1286 17.984 83.8126 17.984C84.5086 17.984 85.0546 17.774 85.4506 17.354C85.8466 16.922 86.0446 16.31 86.0446 15.518V10.028H88.5826ZM93.589 6.68V20H91.069V6.68H93.589ZM99.0127 12.098V16.922C99.0127 17.258 99.0907 17.504 99.2467 17.66C99.4147 17.804 99.6907 17.876 100.075 17.876H101.245V20H99.6607C97.5367 20 96.4747 18.968 96.4747 16.904V12.098H95.2867V10.028H96.4747V7.562H99.0127V10.028H101.245V12.098H99.0127ZM104.335 8.84C103.891 8.84 103.519 8.702 103.219 8.426C102.931 8.138 102.787 7.784 102.787 7.364C102.787 6.944 102.931 6.596 103.219 6.32C103.519 6.032 103.891 5.888 104.335 5.888C104.779 5.888 105.145 6.032 105.433 6.32C105.733 6.596 105.883 6.944 105.883 7.364C105.883 7.784 105.733 8.138 105.433 8.426C105.145 8.702 104.779 8.84 104.335 8.84ZM105.577 10.028V20H103.057V10.028H105.577Z" fill="#00401A"/>
<path d="M115.195 13.556C115.903 13.688 116.485 14.042 116.941 14.618C117.397 15.194 117.625 15.854 117.625 16.598C117.625 17.27 117.457 17.864 117.121 18.38C116.797 18.884 116.323 19.28 115.699 19.568C115.075 19.856 114.337 20 113.485 20H108.067V7.436H113.251C114.103 7.436 114.835 7.574 115.447 7.85C116.071 8.126 116.539 8.51 116.851 9.002C117.175 9.494 117.337 10.052 117.337 10.676C117.337 11.408 117.139 12.02 116.743 12.512C116.359 13.004 115.843 13.352 115.195 13.556ZM110.587 12.62H112.891C113.491 12.62 113.953 12.488 114.277 12.224C114.601 11.948 114.763 11.558 114.763 11.054C114.763 10.55 114.601 10.16 114.277 9.884C113.953 9.608 113.491 9.47 112.891 9.47H110.587V12.62ZM113.125 17.948C113.737 17.948 114.211 17.804 114.547 17.516C114.895 17.228 115.069 16.82 115.069 16.292C115.069 15.752 114.889 15.332 114.529 15.032C114.169 14.72 113.683 14.564 113.071 14.564H110.587V17.948H113.125ZM118.985 14.978C118.985 13.97 119.183 13.076 119.579 12.296C119.987 11.516 120.533 10.916 121.217 10.496C121.913 10.076 122.687 9.866 123.539 9.866C124.283 9.866 124.931 10.016 125.483 10.316C126.047 10.616 126.497 10.994 126.833 11.45V10.028H129.371V20H126.833V18.542C126.509 19.01 126.059 19.4 125.483 19.712C124.919 20.012 124.265 20.162 123.521 20.162C122.681 20.162 121.913 19.946 121.217 19.514C120.533 19.082 119.987 18.476 119.579 17.696C119.183 16.904 118.985 15.998 118.985 14.978ZM126.833 15.014C126.833 14.402 126.713 13.88 126.473 13.448C126.233 13.004 125.909 12.668 125.501 12.44C125.093 12.2 124.655 12.08 124.187 12.08C123.719 12.08 123.287 12.194 122.891 12.422C122.495 12.65 122.171 12.986 121.919 13.43C121.679 13.862 121.559 14.378 121.559 14.978C121.559 15.578 121.679 16.106 121.919 16.562C122.171 17.006 122.495 17.348 122.891 17.588C123.299 17.828 123.731 17.948 124.187 17.948C124.655 17.948 125.093 17.834 125.501 17.606C125.909 17.366 126.233 17.03 126.473 16.598C126.713 16.154 126.833 15.626 126.833 15.014ZM135.739 9.866C136.483 9.866 137.137 10.016 137.701 10.316C138.265 10.604 138.709 10.982 139.033 11.45V10.028H141.571V20.072C141.571 20.996 141.385 21.818 141.013 22.538C140.641 23.27 140.083 23.846 139.339 24.266C138.595 24.698 137.695 24.914 136.639 24.914C135.223 24.914 134.059 24.584 133.147 23.924C132.247 23.264 131.737 22.364 131.617 21.224H134.119C134.251 21.68 134.533 22.04 134.965 22.304C135.409 22.58 135.943 22.718 136.567 22.718C137.299 22.718 137.893 22.496 138.349 22.052C138.805 21.62 139.033 20.96 139.033 20.072V18.524C138.709 18.992 138.259 19.382 137.683 19.694C137.119 20.006 136.471 20.162 135.739 20.162C134.899 20.162 134.131 19.946 133.435 19.514C132.739 19.082 132.187 18.476 131.779 17.696C131.383 16.904 131.185 15.998 131.185 14.978C131.185 13.97 131.383 13.076 131.779 12.296C132.187 11.516 132.733 10.916 133.417 10.496C134.113 10.076 134.887 9.866 135.739 9.866ZM139.033 15.014C139.033 14.402 138.913 13.88 138.673 13.448C138.433 13.004 138.109 12.668 137.701 12.44C137.293 12.2 136.855 12.08 136.387 12.08C135.919 12.08 135.487 12.194 135.091 12.422C134.695 12.65 134.371 12.986 134.119 13.43C133.879 13.862 133.759 14.378 133.759 14.978C133.759 15.578 133.879 16.106 134.119 16.562C134.371 17.006 134.695 17.348 135.091 17.588C135.499 17.828 135.931 17.948 136.387 17.948C136.855 17.948 137.293 17.834 137.701 17.606C138.109 17.366 138.433 17.03 138.673 16.598C138.913 16.154 139.033 15.626 139.033 15.014Z" fill="#FFA62B"/>
<path d="M66.2131 31.66C66.9891 31.66 67.6611 31.792 68.2291 32.056C68.7971 32.32 69.2291 32.7 69.5251 33.196C69.8291 33.692 69.9811 34.28 69.9811 34.96C69.9811 35.272 69.9531 35.572 69.8971 35.86C69.7451 36.708 69.4331 37.444 68.9611 38.068C68.4891 38.692 67.8891 39.172 67.1611 39.508C66.4331 39.836 65.6251 40 64.7371 40H62.0131L63.4891 31.66H66.2131ZM64.9291 38.956C65.8971 38.956 66.6891 38.68 67.3051 38.128C67.9291 37.576 68.3251 36.82 68.4931 35.86C68.5411 35.58 68.5651 35.32 68.5651 35.08C68.5651 34.344 68.3491 33.776 67.9171 33.376C67.4851 32.968 66.8531 32.764 66.0211 32.764H64.6651L63.5731 38.956H64.9291ZM74.5529 33.28C75.3769 33.28 76.0329 33.512 76.5209 33.976C77.0169 34.44 77.2649 35.064 77.2649 35.848C77.2649 36.032 77.2449 36.252 77.2049 36.508C77.1729 36.684 77.1169 36.9 77.0369 37.156H71.9849C71.9769 37.212 71.9729 37.296 71.9729 37.408C71.9729 37.88 72.1169 38.256 72.4049 38.536C72.7009 38.816 73.0849 38.956 73.5569 38.956C74.3009 38.956 74.8729 38.648 75.2729 38.032H76.7489C76.4449 38.64 75.9969 39.14 75.4049 39.532C74.8129 39.916 74.1289 40.108 73.3529 40.108C72.8009 40.108 72.3169 40 71.9009 39.784C71.4849 39.568 71.1609 39.26 70.9289 38.86C70.6969 38.452 70.5809 37.976 70.5809 37.432C70.5809 37.2 70.6049 36.952 70.6529 36.688C70.7729 36.008 71.0169 35.412 71.3849 34.9C71.7529 34.38 72.2089 33.98 72.7529 33.7C73.3049 33.42 73.9049 33.28 74.5529 33.28ZM75.8369 36.172C75.8529 36.028 75.8609 35.924 75.8609 35.86C75.8609 35.42 75.7129 35.072 75.4169 34.816C75.1289 34.56 74.7529 34.432 74.2889 34.432C73.8009 34.432 73.3609 34.588 72.9689 34.9C72.5769 35.212 72.3089 35.636 72.1649 36.172H75.8369ZM80.8672 31.12L79.2952 40H77.9272L79.4992 31.12H80.8672ZM83.1072 32.512C82.8912 32.512 82.7152 32.444 82.5792 32.308C82.4432 32.172 82.3752 32 82.3752 31.792C82.3752 31.512 82.4792 31.272 82.6872 31.072C82.9032 30.864 83.1472 30.76 83.4192 30.76C83.6352 30.76 83.8072 30.828 83.9352 30.964C84.0712 31.1 84.1392 31.272 84.1392 31.48C84.1392 31.76 84.0352 32.004 83.8272 32.212C83.6192 32.412 83.3792 32.512 83.1072 32.512ZM83.6232 33.388L82.4592 40H81.0912L82.2552 33.388H83.6232ZM87.0273 38.776L89.8473 33.388H91.3233L87.6393 40H85.9833L84.6393 33.388H86.1033L87.0273 38.776ZM95.2014 33.28C96.0254 33.28 96.6814 33.512 97.1694 33.976C97.6654 34.44 97.9134 35.064 97.9134 35.848C97.9134 36.032 97.8934 36.252 97.8534 36.508C97.8214 36.684 97.7654 36.9 97.6854 37.156H92.6334C92.6254 37.212 92.6214 37.296 92.6214 37.408C92.6214 37.88 92.7654 38.256 93.0534 38.536C93.3494 38.816 93.7334 38.956 94.2054 38.956C94.9494 38.956 95.5214 38.648 95.9214 38.032H97.3974C97.0934 38.64 96.6454 39.14 96.0534 39.532C95.4614 39.916 94.7774 40.108 94.0014 40.108C93.4494 40.108 92.9654 40 92.5494 39.784C92.1334 39.568 91.8094 39.26 91.5774 38.86C91.3454 38.452 91.2294 37.976 91.2294 37.432C91.2294 37.2 91.2534 36.952 91.3014 36.688C91.4214 36.008 91.6654 35.412 92.0334 34.9C92.4014 34.38 92.8574 33.98 93.4014 33.7C93.9534 33.42 94.5534 33.28 95.2014 33.28ZM96.4854 36.172C96.5014 36.028 96.5094 35.924 96.5094 35.86C96.5094 35.42 96.3614 35.072 96.0654 34.816C95.7774 34.56 95.4014 34.432 94.9374 34.432C94.4494 34.432 94.0094 34.588 93.6174 34.9C93.2254 35.212 92.9574 35.636 92.8134 36.172H96.4854ZM100.904 34.552C101.176 34.152 101.496 33.84 101.864 33.616C102.24 33.392 102.656 33.28 103.112 33.28L102.86 34.696H102.512C101.984 34.696 101.56 34.828 101.24 35.092C100.92 35.356 100.696 35.812 100.568 36.46L99.9436 40H98.5756L99.7396 33.388H101.108L100.904 34.552ZM105.197 32.512C104.981 32.512 104.805 32.444 104.669 32.308C104.533 32.172 104.465 32 104.465 31.792C104.465 31.512 104.569 31.272 104.777 31.072C104.993 30.864 105.237 30.76 105.509 30.76C105.725 30.76 105.897 30.828 106.025 30.964C106.161 31.1 106.229 31.272 106.229 31.48C106.229 31.76 106.125 32.004 105.917 32.212C105.709 32.412 105.469 32.512 105.197 32.512ZM105.713 33.388L104.549 40H103.181L104.345 33.388H105.713ZM110.377 33.28C111.201 33.28 111.857 33.512 112.345 33.976C112.841 34.44 113.089 35.064 113.089 35.848C113.089 36.032 113.069 36.252 113.029 36.508C112.997 36.684 112.941 36.9 112.861 37.156H107.809C107.801 37.212 107.797 37.296 107.797 37.408C107.797 37.88 107.941 38.256 108.229 38.536C108.525 38.816 108.909 38.956 109.381 38.956C110.125 38.956 110.697 38.648 111.097 38.032H112.573C112.269 38.64 111.821 39.14 111.229 39.532C110.637 39.916 109.953 40.108 109.177 40.108C108.625 40.108 108.141 40 107.725 39.784C107.309 39.568 106.985 39.26 106.753 38.86C106.521 38.452 106.405 37.976 106.405 37.432C106.405 37.2 106.429 36.952 106.477 36.688C106.597 36.008 106.841 35.412 107.209 34.9C107.577 34.38 108.033 33.98 108.577 33.7C109.129 33.42 109.729 33.28 110.377 33.28ZM111.661 36.172C111.677 36.028 111.685 35.924 111.685 35.86C111.685 35.42 111.537 35.072 111.241 34.816C110.953 34.56 110.577 34.432 110.113 34.432C109.625 34.432 109.185 34.588 108.793 34.9C108.401 35.212 108.133 35.636 107.989 36.172H111.661ZM116.187 40.108C115.731 40.108 115.315 40.032 114.939 39.88C114.563 39.72 114.267 39.5 114.051 39.22C113.835 38.932 113.727 38.604 113.727 38.236C113.727 38.172 113.735 38.084 113.751 37.972H115.083C115.051 38.276 115.143 38.528 115.359 38.728C115.575 38.928 115.879 39.028 116.271 39.028C116.655 39.028 116.971 38.96 117.219 38.824C117.467 38.688 117.591 38.488 117.591 38.224C117.591 38 117.487 37.82 117.279 37.684C117.079 37.548 116.755 37.396 116.307 37.228C115.883 37.06 115.539 36.904 115.275 36.76C115.011 36.616 114.783 36.42 114.591 36.172C114.399 35.916 114.303 35.6 114.303 35.224C114.303 34.84 114.411 34.504 114.627 34.216C114.851 33.92 115.159 33.692 115.551 33.532C115.951 33.364 116.407 33.28 116.919 33.28C117.383 33.28 117.795 33.36 118.155 33.52C118.523 33.672 118.807 33.892 119.007 34.18C119.215 34.46 119.319 34.784 119.319 35.152C119.319 35.264 119.315 35.348 119.307 35.404H118.011C118.043 35.092 117.951 34.84 117.735 34.648C117.527 34.456 117.227 34.36 116.835 34.36C116.491 34.36 116.211 34.432 115.995 34.576C115.787 34.72 115.683 34.916 115.683 35.164C115.683 35.412 115.791 35.612 116.007 35.764C116.223 35.908 116.555 36.068 117.003 36.244C117.411 36.404 117.743 36.556 117.999 36.7C118.255 36.844 118.475 37.036 118.659 37.276C118.843 37.516 118.935 37.816 118.935 38.176C118.935 38.568 118.815 38.912 118.575 39.208C118.343 39.496 118.019 39.72 117.603 39.88C117.187 40.032 116.715 40.108 116.187 40.108ZM120.702 40.084C120.486 40.084 120.31 40.016 120.174 39.88C120.038 39.744 119.97 39.572 119.97 39.364C119.97 39.084 120.074 38.844 120.282 38.644C120.498 38.436 120.742 38.332 121.014 38.332C121.23 38.332 121.402 38.4 121.53 38.536C121.666 38.672 121.734 38.844 121.734 39.052C121.734 39.332 121.63 39.576 121.422 39.784C121.214 39.984 120.974 40.084 120.702 40.084ZM123.596 40.084C123.38 40.084 123.204 40.016 123.068 39.88C122.932 39.744 122.864 39.572 122.864 39.364C122.864 39.084 122.968 38.844 123.176 38.644C123.392 38.436 123.636 38.332 123.908 38.332C124.124 38.332 124.296 38.4 124.424 38.536C124.56 38.672 124.628 38.844 124.628 39.052C124.628 39.332 124.524 39.576 124.316 39.784C124.108 39.984 123.868 40.084 123.596 40.084ZM126.491 40.084C126.275 40.084 126.099 40.016 125.963 39.88C125.827 39.744 125.759 39.572 125.759 39.364C125.759 39.084 125.863 38.844 126.071 38.644C126.287 38.436 126.531 38.332 126.803 38.332C127.019 38.332 127.191 38.4 127.319 38.536C127.455 38.672 127.523 38.844 127.523 39.052C127.523 39.332 127.419 39.576 127.211 39.784C127.003 39.984 126.763 40.084 126.491 40.084Z" fill="#001308"/>
</svg>
