<svg width="30" height="30" viewBox="0 0 30 30" fill="none" xmlns="http://www.w3.org/2000/svg">
<path d="M24.5605 18H14.3737V16.1209H21.9231C22.2198 16.1209 22.4835 15.8571 22.4835 15.5604V12C22.4835 11.7033 22.2198 11.4395 21.9231 11.4395H19.4176V9.75822C20.044 8.99998 21 7.7802 21 6.98899C21 5.80217 20.044 4.84613 18.8572 4.84613C17.6704 4.84613 16.7143 5.80217 16.7143 6.98899C16.7143 7.7802 17.6704 9.03294 18.2967 9.75822V12C18.2967 12.2967 18.5605 12.5604 18.8572 12.5604H21.3627V15.0329H13.8132C13.5165 15.0329 13.2528 15.2967 13.2528 15.5934V18.5934C13.2528 18.8901 13.5165 19.1538 13.8132 19.1538H24V21.7912H8.70333V20.3736C9.6264 19.3187 11.4066 17.1428 11.4066 15.8242C11.4066 14.0439 9.95607 12.5604 8.14289 12.5604C6.36267 12.5604 4.87915 14.011 4.87915 15.8242C4.87915 17.1428 6.65937 19.3187 7.58245 20.3736V22.3516C7.58245 22.6483 7.84618 22.9121 8.14289 22.9121H24.5275C24.8242 22.9121 25.0879 22.6483 25.0879 22.3516V18.5604C25.0879 18.2307 24.8572 18 24.5605 18ZM18.8572 6.29668C19.2528 6.29668 19.5495 6.62635 19.5495 6.98899C19.5495 7.38459 19.2198 7.68129 18.8572 7.68129C18.4616 7.68129 18.1319 7.35162 18.1319 6.98899C18.1319 6.62635 18.4616 6.29668 18.8572 6.29668ZM7.05497 15.6923C7.05497 15.0659 7.54948 14.5714 8.17585 14.5714C8.80223 14.5714 9.29673 15.0659 9.29673 15.6923C9.29673 16.3187 8.80223 16.8132 8.17585 16.8132C7.54948 16.7802 7.05497 16.2857 7.05497 15.6923Z" fill="#FFA62B" stroke="#FFA62B" stroke-width="0.5"/>
</svg>
